<?xml version="1.0" encoding="UTF-8"?><svg id="Layer_2" xmlns="http://www.w3.org/2000/svg" viewBox="0 0 304 396"><defs><style>.cls-1{fill:#c4a397;}.cls-2{fill:#ebd3c5;}.cls-3{fill:#332216;}</style></defs><g id="Layer_1-2"><g><rect class="cls-2" x="36" y="41" width="232" height="355" rx="116" ry="116"/><rect class="cls-1" x="134" y="145" width="36" height="124" rx="18" ry="18"/><path class="cls-1" d="M160.32,260.45h0v98h0c-9.18,0-16.64-7.45-16.64-16.64v-64.73c0-9.18,7.45-16.64,16.64-16.64Z" transform="translate(-157.45 461.45) rotate(-90)"/><rect class="cls-3" x="65" y="182" width="36" height="36" rx="18" ry="18"/><rect class="cls-3" x="199" y="182" width="36" height="36" rx="18" ry="18"/><path class="cls-1" d="M286,164h18v124h-18c-9.93,0-18-8.07-18-18v-88c0-9.93,8.07-18,18-18Z" transform="translate(572 452) rotate(180)"/><path class="cls-1" d="M18,164h18v124H18C8.07,288,0,279.93,0,270v-88C0,172.07,8.07,164,18,164Z"/><polygon class="cls-3" points="103 110.43 73 136 60 127 45 179 36 179 28 174 23.43 164 36 41 51.43 41 98 0 139 9 183.43 0 233 30 268 45.86 273 108 276 164 274 176 268 183 261 179 252 136 248 140 231 113 189 125 167 100 138 119 111 96 103 110.43"/><path class="cls-3" d="M268,220v60c0,63.8-52.2,116-116,116s-116-52.2-116-116v-60c0,63.8,52.2,116,116,116s116-52.2,116-116Z"/><path class="cls-3" d="M220.45,293.47v9.53c0-10.13-30.8-18.41-68.45-18.41s-68.45,8.28-68.45,18.41v-9.53c0-9.35,26.27-17.13,59.94-18.27,2.24,2.09,5.24,3.35,8.51,3.35s6.27-1.26,8.51-3.35c33.67,1.14,59.94,8.92,59.94,18.27Z"/></g></g></svg>